<svg width="476" height="610" viewBox="0 0 476 610" fill="none" xmlns="http://www.w3.org/2000/svg">
<path d="M476 514.6L404.3 537.7L392.9 501.8C388.4 487.9 376.4 455.7 352.6 424.5C314.8 466.6 267.2 484.5 239.6 491.7L237.8 492.1C167.8 506.8 105.1 489.9 74.0004 448.1C57.8004 426.3 50.5004 403.2 52.3004 379.5C55.3004 339.7 83.2004 315.5 92.3004 307.6C118.2 285 155.1 273.1 198.9 273C232.3 272.9 269.6 280 301.1 292.5C310.3 296.1 319.1 300.3 327.7 304.9C333.1 260.7 317.1 218.4 307.7 198.3C288.7 157.5 255.5 125.4 209 103.2C171.6 85.4 138.8 80.4 135.2 79.9L97.9004 74.7L108.3 0L145.6 5.2C162.6 7.6 313.5 32.3 376 166.4C391.5 199.8 419.9 277.5 393 355.7C404.2 367.6 414.6 380.8 424.2 395.3C445.7 427.7 458 458.5 464.5 478.7L476 514.6ZM221.3 418.5C240.2 413.4 272.1 401.3 296.6 373.9C289.3 369.7 281.6 365.9 273.4 362.6C229.6 345.3 168.4 341.3 141.7 364.5C137.3 368.4 128.1 376.4 127.4 385.3C126.8 392.9 132.3 400.4 134.4 403.2C147 420.2 182.6 426.5 221.3 418.5Z" fill="#E62154"/>
</svg>
