<svg width="444" height="369" viewBox="0 0 444 369" fill="none" xmlns="http://www.w3.org/2000/svg">
<path d="M356.3 365.4C336.9 365 299.4 359.9 266.2 330.8C240 307.7 229.2 280.1 224.4 263.6C214.8 259.4 205.4 255.1 187.1 245.8C181.4 264.6 170.2 286.3 147.9 302.6C142.3 306.7 117.6 323.3 85.8001 323.3C77.7001 323.3 69.2001 322.2 60.4001 319.6C27.9001 309.9 13.7001 290.6 7.50005 276C-2.29995 253 3.20005 231.6 7.40005 220.8C13.0001 206.3 25.8001 186.6 54.9001 175.1C75.6001 166.9 93.3001 169.3 110.5 171.6C124 173.4 137.3 176.5 150.3 181C149.1 173.3 146.6 165.2 141.6 157.4C120.8 125.2 74.1001 126.3 72.2001 126.4L70.8001 83.5C78.2001 83.3 144.4 82.6 177.7 134.1C193.8 159 194.8 184.6 194.1 201C203.2 205.8 210.4 209.4 216.4 212.4C216.1 190 220.7 162.6 239.5 137.6C267.7 100 326 72.4 378.6 95.3C415 111.1 440 145.9 442.4 183.8C445.2 228.6 417.6 262.6 393.1 278.1C368.9 293.4 338.4 297.7 302.4 290.7C295.7 289.4 289.1 287.8 282.8 285.9C286.2 290.2 290.1 294.5 294.7 298.6C318.5 319.5 346.4 322.3 357.4 322.6L356.3 365.4ZM85.6001 212.2C80.2001 212.2 75.6001 212.9 70.7001 214.9C58.9001 219.5 51.1001 226.7 47.5001 236.1C45.7001 240.8 43.2001 250 47.1001 259C50.9001 267.8 59.5001 274.3 72.8001 278.3C97.3001 285.6 120.2 269.6 122.8 267.8C138.3 256.5 145 239.7 148.1 225.9C134.1 219.9 119.6 215.9 105 214C97.0001 213 90.9001 212.2 85.6001 212.2ZM261.3 232.7C290.6 244.9 338.4 261.8 370 241.8C385.7 231.8 400.9 210.9 399.4 186.4C397.8 161.3 379.2 142.3 361.3 134.5C330 120.9 292.2 138.4 273.6 163.2C256 186.8 258.1 215.2 261.3 232.7Z" fill="#F6F7FA"/>
<path d="M38.1004 94.8H30.9004V117.7H38.1004V94.8Z" fill="#F6F7FA"/>
<path d="M26.3998 102V94.8H19.9998V87.5H12.6998V94.8H6.7998V102H12.6998V107.2C12.6998 113 17.3998 117.6 23.0998 117.6H26.2998V110.4H23.0998C21.2998 110.4 19.8998 109 19.8998 107.2V102H26.3998Z" fill="#F6F7FA"/>
<path d="M49.9998 113.5L53.7998 110.8C55.2998 113 57.0998 115.5 58.5998 117.6H67.4998C65.0998 114.1 62.2998 110 59.8998 106.5L66.1998 102L61.7998 96L49.9998 104.6V84.3H42.7998V117.6H49.9998V113.5Z" fill="#F6F7FA"/>
<path d="M420.6 355.8L424.4 353.1C425.9 355.3 427.7 357.8 429.2 359.9H438.1C435.7 356.4 432.9 352.3 430.5 348.8L436.8 344.3L432.4 338.3L420.7 346.9V326.6H413.5V360H420.7V355.8H420.6Z" fill="#F6F7FA"/>
<path d="M381.4 344.3V337.1H375V329.8H367.7V337.1H361.8V344.3H367.7V349.5C367.7 355.3 372.4 359.9 378.1 359.9H381.3V352.7H378.1C376.3 352.7 374.9 351.3 374.9 349.5V344.3H381.4Z" fill="#F6F7FA"/>
<path d="M402.3 337.1V339C400.5 337.4 398.2 336.5 395.2 336.5C389.2 336.5 384.1 341.4 384.1 348.5C384.1 355.7 389.2 360.5 395.2 360.5C398.1 360.5 400.5 359.6 402.3 358V359.9H409.5V337H402.3V337.1ZM396.7 354C393.7 354 391.2 351.5 391.2 348.5C391.2 345.5 393.7 343 396.7 343C399.7 343 402.2 345.5 402.2 348.5C402.3 351.6 399.8 354 396.7 354Z" fill="#F6F7FA"/>
<path d="M39.3996 87.3C39.3996 90 37.1996 92.2 34.4996 92.2C31.7996 92.2 29.5996 90 29.5996 87.3C29.5996 84.6 31.7996 82.4 34.4996 82.4C37.1996 82.3 39.3996 84.5 39.3996 87.3Z" fill="#F6F7FA"/>
</svg>
