<svg width="373" height="308" viewBox="0 0 373 308" fill="none" xmlns="http://www.w3.org/2000/svg">
<path d="M89.4 138.4C74.3 127.9 51.9 129.4 48.8 129.4H30L30.1 91.8H48.9C54.7 91.8 70 92.4 87.3 97.5C102.5 101.9 115.7 108.8 126.4 117.8C163.1 105.6 197.1 117.1 204.2 119.8" fill="#E62154"/>
<path d="M337.9 198.2V222.3C337.9 225.2 341.4 226.7 343.5 224.6L368.2 199.9C369.5 198.6 369.5 196.5 368.2 195.2L343.5 170.5C341.4 168.4 337.9 169.9 337.9 172.8V198.2Z" fill="#E62154"/>
<path d="M32 110.2V86.1C32 83.2 28.5 81.7 26.4 83.8L1.6 108.5C0.3 109.8 0.3 111.9 1.6 113.2L26.3 137.9C28.4 140 31.9 138.5 31.9 135.6L32 110.2Z" fill="#E62154"/>
<path d="M279.3 169.8C294.4 180.3 316.8 178.8 319.9 178.8H338.7L338.6 216.4H319.8C314 216.4 298.7 215.8 281.4 210.7C266.2 206.3 253 199.4 242.3 190.4C205.6 202.6 171.6 191.1 164.5 188.4" fill="#E62154"/>
</svg>
